# xmcd
#
# Track frame offsets:
#	182
#	20585
#	35855
#	56150
#	71702
#	90812
#	106012
#	120535
#	137385
#	153695
#	167007
#	179810
#	197052
#	210817
#	228862
#
# Disc length: 3289 seconds
#
# Revision: 1
# Processed by: cddbd v1.5.2PL0 Copyright (c) Steve Scherf et al.
# Submitted via: audiograbber 1.83.01
#
DISCID=c60cd70f
DTITLE=karoake - 6056
DYEAR=1900
DGENRE=karoke
TTITLE0=Vince Gill - Whenever You Come Around
TTITLE1=Mary Chapin Carpenter - I Take My Chances
TTITLE2=Tim McGraw - Don't Take The Girl
TTITLE3=Martina McBride - Independence Day
TTITLE4=Garth Brooks - One Night A Day
TTITLE5=Suzy Bogguss - You Wouldn't Say That To A Stranger
TTITLE6=Steve Wariner - It Won't Be Over You
TTITLE7=Lorrie Morgan - If You Came Back From Heaven
TTITLE8=Blackhawk - Every Once In A While
TTITLE9=Victoria Shaw - Cry Wolf
TTITLE10=Neal McCoy - Wink
TTITLE11=Dawn Sears - Runaway Train
TTITLE12=Tracy Byrd - Lifestyles Of The Not So Rich And Famous
TTITLE13=Kim Hill - Janie's Gone Fishing
TTITLE14=Alabama - Cheap Seats
EXTD=
EXTT0=
EXTT1=
EXTT2=
EXTT3=
EXTT4=
EXTT5=
EXTT6=
EXTT7=
EXTT8=
EXTT9=
EXTT10=
EXTT11=
EXTT12=
EXTT13=
EXTT14=
PLAYORDER=
